Plot

A young doctor in a US hospital administers a powerful and untested cocktail of drugs to a coma victim. But
instead of curing him, it triggers a powerful "out-of-body" experience and enables the patient - a depraved
and dangerous loner - to inhabit other people's bodies and, through them, take revenge on the bullying medical
students who were accidentally responsible for his condition. The doctor, who was herself a part of this group,
is also targeted and as her colleagues are singled out and relentlessly picked off, she realises that she can
trust no-one


General
Complete name : Red Mist (FreakDog) 2008 DVDRip Xvid BigPerm LKRGRM_LKRG.avi
Format : AVI
Format/Info : Audio Video Interleave
File size : 873 MiB
Duration : 1h 25mn
Overall bit rate : 1 430 Kbps

Video
ID : 0
Format : MPEG-4 Visual
Format profile : Advanced Simple@L5
Format settings, BVOP : Yes
Format settings, QPel : No
Format settings, GMC : No warppoints
Format settings, Matrix : Default (H.263)
Codec ID : XVID
Codec ID/Hint : XviD
Duration : 1h 25mn
Bit rate : 977 Kbps
Width : 704 pixels
Height : 396 pixels
Display aspect ratio : 16:9
Frame rate : 23.976 fps
Color space : YUV
Chroma subsampling : 4:2:0
Bit depth : 8 bits
Scan type : Progressive
Compression mode : Lossy
Bits/(Pixel*Frame) : 0.146
Stream size : 596 MiB (68%)
Writing library : XviD 1.2.1 (UTC 2008-12-04)

Audio
ID : 1
Format : AC-3
Format/Info : Audio Coding 3
Mode extension : CM (complete main)
Codec ID : 2000
Duration : 1h 25mn
Bit rate mode : Constant
Bit rate : 448 Kbps
Channel(s) : 6 channels
Channel positions : Front: L C R, Side: L R, LFE
Sampling rate : 48.0 KHz
Bit depth : 16 bits
Compression mode : Lossy
Video delay : 42ms
Stream size : 273 MiB (31%)
Alignment : Split accross interleaves
Interleave, duration : 500 ms (11.99 video frames)
Interleave, preload duration : 500 ms
Language : English

 
http://www.imdb.com/title/tt1185264/


Screen Shots:
 
http://leetleech.org/images/33277040556775720631.png
 
http://leetleech.org/images/58769923842615486640.png
 
http://leetleech.org/images/72080147901286821475.png
 
http://leetleech.org/images/20043658510596460456.png
 
http://leetleech.org/images/49096647227738764874.png
